<svg xmlns="http://www.w3.org/2000/svg" viewBox="0 0 64 64">
  <defs>
    <linearGradient id="ppgrad" x1="0" y1="0" x2="1" y2="1">
      <stop offset="0" stop-color="#003087"/>
      <stop offset="1" stop-color="#009cde"/>
    </linearGradient>
  </defs>
  <rect x="4" y="8" width="56" height="48" rx="10" fill="#050816"/>
  <path fill="url(#ppgrad)" d="M25 16h10.5c4 0 6.8 1 8.5 3 1.3 1.5 1.9 3.4 1.9 5.7 0 3.6-1.4 6.3-4.1 8-1.9 1.2-4.3 1.8-7.3 1.8h-4.4l-1.3 9.5H22L25 16zm7.2 13.1c2 0 3.5-.4 4.5-1.1 1.1-.8 1.7-2 1.7-3.7 0-1.3-.4-2.2-1.1-2.9-.8-.7-2.1-1-3.9-1h-4.7l-1.4 8.7h4.9z"/>
  <path fill="#ffffff" opacity=".9" d="M22.8 24.5h7.6c2.4 0 4.2.6 5.4 1.7 1.1 1.1 1.7 2.6 1.7 4.5 0 2.8-1.1 4.9-3.2 6.4-1.7 1.2-3.9 1.8-6.7 1.8h-3.8l-.9 6.6h-4.3l3.1-21z"/>
</svg>
