<svg xmlns="http://www.w3.org/2000/svg" viewBox="0 0 64 64">
  <defs>
    <linearGradient id="wgrad" x1="0" y1="0" x2="1" y2="1">
      <stop offset="0" stop-color="#30d158"/>
      <stop offset="1" stop-color="#0b8f3a"/>
    </linearGradient>
  </defs>
  <circle cx="32" cy="32" r="30" fill="url(#wgrad)"/>
  <path fill="#ffffff" d="M32 17c-7.2 0-13 5.7-13 12.8 0 2.6.8 5 2.2 7.1L19 47l10.4-2.2c1.9.8 3.9 1.2 6 1.2 7.2 0 13-5.7 13-12.8C48.4 22.7 41.7 17 32 17zm0 4c5.1 0 9.4 3.9 9.4 8.8 0 4.9-4.2 8.8-9.4 8.8-1.7 0-3.4-.4-4.9-1.2l-1-.5-4.3.9.9-4-.6-1c-1-1.6-1.5-3.4-1.5-5.2C20.7 24.9 25 21 32 21zm-5.4 3.9c-.3-.7-.6-.7-.9-.8h-.8c-.3 0-.8.1-1.2.6-.4.4-1.6 1.6-1.6 3.9s1.7 4.5 1.9 4.8c.2.3 3.1 4.8 7.6 6.6 3.7 1.5 4.5 1.3 5.3 1.1.8-.2 2.6-1.1 2.9-2.1.4-1 .4-1.9.3-2.1-.1-.2-.3-.3-.7-.5-.4-.2-2.6-1.3-3-1.5-.4-.2-.7-.3-1 .2-.3.4-1.2 1.5-1.5 1.8-.3.3-.6.3-1 .1-.4-.2-1.6-.6-3-1.9-1.1-1-1.9-2.3-2.1-2.7-.2-.4 0-.6.2-.8.2-.2.4-.4.6-.7.2-.2.3-.4.4-.6.1-.2.1-.4 0-.6-.1-.2-1-2.4-1.4-3.2z"/>
</svg>
